<?xml version="1.0" encoding="utf-8"?>
<!-- Generator: Adobe Illustrator 24.2.3, SVG Export Plug-In . SVG Version: 6.00 Build 0)  -->
<svg version="1.1" id="Layer_1" xmlns="http://www.w3.org/2000/svg" xmlns:xlink="http://www.w3.org/1999/xlink" x="0px" y="0px"
	 viewBox="0 0 417 507" enable-background="new 0 0 417 507" xml:space="preserve">
<g>
	<polygon fill="#2062AF" points="342.395,451.662 207.256,488.338 72.116,451.662 40.931,111.137 373.584,111.137 	"/>
	<polygon fill="#3C9CD7" points="207.255,138.719 207.255,459.086 207.56,459.169 316.922,429.489 342.164,138.719 	"/>
	<g>
		<polygon points="130.559,61.107 130.559,40.84 159.897,40.84 159.897,18.662 108.555,18.662 108.555,81.345 159.897,81.345 
			159.897,61.107 		"/>
		<path d="M212.674,40.84h20.51V18.662h-51.346c0,0,0,11.132,0,22.178c6.869,6.924,10.452,10.238,20.386,20.252
			c-5.807,0-20.386,0.021-20.386,0.02v20.234h51.346V61.107L212.674,40.84z"/>
		<path d="M285.45,40.84h20.51V18.662h-51.35c0,0,0,11.132,0,22.178c6.869,6.924,10.454,10.238,20.389,20.252
			c-5.805,0-20.389,0.021-20.389,0.02v20.234h51.35V61.107L285.45,40.84z"/>
	</g>
	<g>
		<polygon fill="#FFFFFF" points="207.135,223.864 110.411,264.467 113.619,304.666 207.135,264.365 306.61,221.498 
			310.736,180.376 		"/>
		<linearGradient id="SVGID_1_" gradientUnits="userSpaceOnUse" x1="158.773" y1="304.6656" x2="158.773" y2="223.8643">
			<stop  offset="0.3865" style="stop-color:#D1D3D4;stop-opacity:0"/>
			<stop  offset="1" style="stop-color:#D1D3D4"/>
		</linearGradient>
		<polygon fill="url(#SVGID_1_)" points="110.411,264.467 113.619,304.666 207.135,264.365 207.135,223.864 		"/>
		<linearGradient id="SVGID_2_" gradientUnits="userSpaceOnUse" x1="258.9355" y1="264.3647" x2="258.9355" y2="180.3759">
			<stop  offset="0.3865" style="stop-color:#D1D3D4;stop-opacity:0"/>
			<stop  offset="1" style="stop-color:#D1D3D4"/>
		</linearGradient>
		<polygon fill="url(#SVGID_2_)" points="310.736,180.376 207.135,223.864 207.135,264.365 306.61,221.498 		"/>
		<linearGradient id="SVGID_3_" gradientUnits="userSpaceOnUse" x1="110.5596" y1="340.7046" x2="303.097" y2="340.7046">
			<stop  offset="0" style="stop-color:#E8E7E5"/>
			<stop  offset="1" style="stop-color:#FFFFFF"/>
		</linearGradient>
		<polygon fill="url(#SVGID_3_)" points="110.56,264.467 113.769,304.666 257.255,305.127 254.047,358.724 206.831,372.124 
			161.443,360.573 158.693,327.305 116.519,327.305 122.02,391.53 207.289,416.942 292.094,391.991 303.097,264.467 		"/>
		<g opacity="0.05">
			<polygon points="207.135,264.467 110.411,264.467 113.619,304.666 207.135,304.966 			"/>
			<polygon points="207.135,371.994 206.677,372.124 161.295,360.573 158.544,327.305 116.37,327.305 121.871,391.53 
				207.135,416.942 			"/>
		</g>
		<linearGradient id="SVGID_4_" gradientUnits="userSpaceOnUse" x1="101.7011" y1="200.9368" x2="310.7358" y2="200.9368">
			<stop  offset="0" style="stop-color:#E8E7E5"/>
			<stop  offset="1" style="stop-color:#FFFFFF"/>
		</linearGradient>
		<polygon fill="url(#SVGID_4_)" points="101.701,180.376 310.736,180.376 306.61,221.498 106.743,221.498 		"/>
		<polygon opacity="0.05" points="207.135,180.376 101.701,180.376 106.743,221.498 207.135,221.498 		"/>
	</g>
</g>
</svg>
