<?xml version="1.0" encoding="utf-8"?>
<!-- Generator: Adobe Illustrator 24.2.3, SVG Export Plug-In . SVG Version: 6.00 Build 0)  -->
<svg version="1.1" xmlns="http://www.w3.org/2000/svg" xmlns:xlink="http://www.w3.org/1999/xlink" x="0px" y="0px"
	 viewBox="0 0 53.294 75.256" enable-background="new 0 0 53.294 75.256" xml:space="preserve">
<g id="Layer_1">
	<g id="code_x5F_html5">
	</g>
	<g>
		<polygon fill="#E6A329" points="51.41,18.03 27.441,18.03 27.441,18.03 3.472,18.03 7.964,66.762 27.441,72.284 27.441,72.284 
			27.441,72.284 27.441,72.284 27.441,72.284 46.911,66.762 		"/>
		<polygon fill="#F1BF22" points="27.441,21.999 27.441,68.157 27.441,68.157 43.213,63.686 47.054,21.999 		"/>
		<polygon fill="#FFFFFF" points="39.99,27.979 15.73,27.979 14.044,46.226 14.08,46.112 34.687,46.112 34.014,53.83 27.441,55.725 
			20.767,53.801 20.367,49.13 14.308,49.13 15.174,58.465 27.441,61.948 39.708,58.465 41.397,40.146 19.53,40.146 19.809,34.038 
			34.986,34.038 35.209,37.534 41.322,37.534 		"/>
		<g>
			<path fill="#EBEBEB" d="M27.441,27.979H15.73l-1.686,18.247l0.036-0.115h13.361v-5.965h-7.068l0.279-6.109h6.789V27.979z
				 M20.367,49.13h-6.059l0.866,9.334l12.267,3.476v-6.216l-6.674-1.924L20.367,49.13z"/>
		</g>
		<g>
			<polygon points="22.776,10.841 18.513,10.841 18.513,13.903 22.776,13.903 25.059,13.903 25.831,13.903 25.831,4.804 
				22.776,4.804 			"/>
			<path d="M36.369,4.85h-7.436c0,0,0,1.599,0,3.186c0.994,0.995,1.513,1.471,2.952,2.91c-0.842,0-2.952,0.003-2.952,0.003v2.907
				h7.436v-2.907L33.4,8.036h2.97V4.85z"/>
		</g>
	</g>
</g>
<g id="Layer_2">
</g>
</svg>
